<svg version="1.1" id="Layer_1" xmlns="http://www.w3.org/2000/svg" xmlns:xlink="http://www.w3.org/1999/xlink" x="0px" y="0px"
	 width="100%" viewBox="0 0 580 580" enable-background="new 0 0 580 580" xml:space="preserve">
<path fill="#F6F6F6" opacity="1.000000" stroke="none" 
	d="
M369.000000,581.000000 
	C246.000000,581.000000 123.500000,581.000000 1.000000,581.000000 
	C1.000000,387.666656 1.000000,194.333328 1.000000,1.000000 
	C194.333328,1.000000 387.666656,1.000000 581.000000,1.000000 
	C581.000000,194.333328 581.000000,387.666656 581.000000,581.000000 
	C510.500000,581.000000 440.000000,581.000000 369.000000,581.000000 
M146.180603,478.178040 
	C145.995193,479.072479 145.809784,479.966949 145.704391,480.875854 
	C145.704391,480.875854 145.628784,480.827393 145.147186,481.361389 
	C141.730621,492.637909 138.314041,503.914459 134.539627,516.372070 
	C145.298294,508.989563 154.870605,502.483582 164.378769,495.885132 
	C193.480347,475.689301 222.584579,455.497070 251.630386,435.221222 
	C263.193542,427.149323 274.606110,418.861725 286.878967,410.464081 
	C289.087189,411.089600 291.663574,411.182983 293.449585,412.418732 
	C333.904785,440.410614 374.253815,468.555817 414.673309,496.599487 
	C423.782043,502.919220 433.079681,508.966705 442.065460,515.454102 
	C442.407898,515.521912 442.750366,515.589722 443.092834,515.657593 
	C442.901001,515.459656 442.709198,515.261719 442.639862,514.300659 
	C442.431915,513.833923 442.223999,513.367188 442.248138,512.246765 
	C441.877289,510.629822 441.602325,508.983765 441.121735,507.400177 
	C426.841949,460.352509 412.506317,413.321777 398.273193,366.260040 
	C395.247803,356.256531 392.584106,346.143646 390.334320,335.692108 
	C439.355408,298.529236 488.376495,261.366394 537.397583,224.203522 
	C537.217834,223.898010 537.038025,223.592499 536.858276,223.286987 
	C535.585144,223.286987 534.312073,223.286987 532.330750,222.951904 
	C523.270142,222.920334 514.209473,222.888748 504.671143,222.153793 
	C494.100830,221.924118 483.530487,221.694427 472.091339,221.348862 
	C469.754150,221.350647 467.416992,221.352448 464.506714,221.115982 
	C464.312286,221.186630 464.117828,221.257294 463.000732,221.240723 
	C456.678711,221.206818 450.356689,221.172913 443.247314,220.824890 
	C438.506683,220.771774 433.766052,220.718658 428.357666,220.552887 
	C427.908966,220.585434 427.460236,220.617996 426.646820,220.356552 
	C426.298981,220.410492 426.072205,220.605438 425.034943,220.995163 
	C418.075714,220.929947 411.116516,220.864716 403.730286,220.124588 
	C392.121246,219.874649 380.512238,219.624725 367.983246,219.304703 
	C362.353149,219.178085 356.723022,219.051468 351.044708,218.335556 
	C350.718903,217.876709 350.393097,217.417862 349.798004,216.268661 
	C349.009735,213.921707 348.241760,211.567719 347.430206,209.228851 
	C332.782562,167.012512 318.163727,124.786125 303.456818,82.590431 
	C299.094696,70.074982 294.481781,57.646938 289.959137,44.517620 
	C286.348694,42.601589 287.364868,46.299225 286.998169,47.341782 
	C275.898987,78.899414 264.976807,110.519196 253.968063,142.108734 
	C245.097366,167.563232 236.150360,192.991135 226.733551,218.414337 
	C226.571121,218.681351 226.408691,218.948349 226.023590,219.353455 
	C226.023590,219.353455 226.108582,219.601303 225.211761,219.279892 
	C219.845856,219.309143 214.479965,219.338394 208.209824,219.044327 
	C194.459229,219.450439 180.708618,219.856552 166.113235,220.221298 
	C164.423431,220.266983 162.733643,220.312668 160.170013,220.044601 
	C156.072235,220.224792 151.974457,220.404999 146.955368,220.632538 
	C116.189377,221.198685 85.422958,221.743805 54.658001,222.361496 
	C51.357845,222.427750 48.066177,222.916519 44.168816,223.027863 
	C42.943645,223.027863 41.718475,223.027863 39.439255,223.027863 
	C41.420860,224.728943 42.474331,225.735153 43.628090,226.608917 
	C83.388046,256.720459 123.174637,286.796844 162.912079,316.938049 
	C171.627319,323.548615 180.172485,330.383392 188.715668,337.637115 
	C188.734558,337.982849 188.753433,338.328613 188.293488,339.177704 
	C187.881821,340.759827 187.470154,342.341980 186.792725,344.328888 
	C186.792725,344.328888 186.879654,344.805298 186.413376,345.286377 
	C186.263626,346.151184 186.113876,347.015991 185.458694,348.432739 
	C175.717499,380.522675 165.936356,412.600616 156.259079,444.709808 
	C153.299240,454.530518 150.624527,464.437103 147.231552,474.823944 
	C147.003860,475.831024 146.776169,476.838135 146.725189,477.875305 
	C146.725189,477.875305 146.678345,477.702271 146.180603,478.178040 
z"/>
<path fill="#EE1012" opacity="1.000000" stroke="none" 
	d="
M427.011536,220.650543 
	C427.460236,220.617996 427.908966,220.585434 428.981934,220.819611 
	C434.415680,221.103912 439.225189,221.121460 444.034668,221.139008 
	C450.356689,221.172913 456.678711,221.206818 463.560150,221.455841 
	C464.439636,221.565384 464.759735,221.459808 465.079803,221.354233 
	C467.416992,221.352448 469.754150,221.350647 472.871368,221.632538 
	C484.150543,222.229874 494.649719,222.543518 505.148865,222.857178 
	C514.209473,222.888748 523.270142,222.920334 532.607300,223.453888 
	C528.939575,225.350967 524.995300,226.746063 521.020264,227.718109 
	C519.968140,226.531128 519.021912,225.277008 517.909363,225.106262 
	C515.654297,224.760162 513.309204,225.000702 510.580566,224.987244 
	C504.916809,224.945526 499.664246,225.105087 494.432526,224.845474 
	C484.684021,224.361755 474.952606,223.233093 465.204895,223.112091 
	C453.678650,222.969055 442.136963,223.984192 430.612488,223.808258 
	C417.784332,223.612427 404.974030,222.418335 392.144806,222.073181 
	C380.500610,221.759918 368.841278,221.968170 357.189178,222.040161 
	C355.488739,222.050659 353.791504,222.581802 352.210693,222.851883 
	C350.633606,221.429565 349.097595,220.044296 348.558136,219.557800 
	C344.059296,226.927338 339.872620,234.368576 335.096375,241.409882 
	C331.767548,246.317368 327.417816,250.521210 323.909515,255.321075 
	C319.826019,260.907867 316.897003,267.516357 312.147064,272.396912 
	C304.838928,279.905975 299.806427,288.919678 293.596741,297.132690 
	C293.201813,297.655029 293.346527,298.585388 293.240204,299.325958 
	C293.484039,299.658722 293.727844,299.991516 293.971649,300.324280 
	C298.216278,296.372559 304.773102,298.405182 308.734955,293.523041 
	C309.195923,292.954987 310.605774,293.037964 311.578308,293.025940 
	C314.739960,292.986969 317.902771,293.044037 320.880371,293.378662 
	C315.579468,295.452515 310.400726,297.051483 305.365692,299.018250 
	C300.764496,300.815552 296.318726,303.010773 291.666138,305.009796 
	C291.527771,304.988953 291.244446,304.962769 290.934906,304.954834 
	C290.418945,304.946106 290.212524,304.945282 289.723785,304.789062 
	C288.628998,304.421539 287.816498,304.209381 286.667572,303.833984 
	C282.240234,302.393921 278.119995,301.203522 274.064209,299.823547 
	C263.566040,296.251587 253.143753,292.450867 242.604782,289.005707 
	C223.668503,282.815460 204.649368,276.879150 185.701294,270.724518 
	C165.520935,264.169617 145.392136,257.456024 125.222847,250.866791 
	C112.604866,246.744522 99.956490,242.715195 87.316620,238.660141 
	C74.219017,234.458221 61.115219,230.275589 47.744576,225.905426 
	C46.573540,224.887329 45.672054,224.048309 44.770573,223.209290 
	C48.066177,222.916519 51.357845,222.427750 54.658001,222.361496 
	C85.422958,221.743805 116.189377,221.198685 147.850403,220.787231 
	C152.844894,220.747391 156.944366,220.552872 161.043839,220.358353 
	C162.733643,220.312668 164.423431,220.266983 166.863388,220.484344 
	C178.020782,220.521179 188.429108,220.333618 198.834671,220.046829 
	C202.264771,219.952286 205.687805,219.601349 209.114059,219.367645 
	C214.479965,219.338394 219.845856,219.309143 225.748474,219.733063 
	C227.853516,221.790588 229.421814,223.394958 230.634399,224.959579 
	C227.850616,223.951141 225.422562,222.982437 222.620819,222.010468 
	C221.499741,222.009445 220.752350,222.011673 219.628784,222.008820 
	C218.500183,222.006882 217.747757,222.010010 216.551651,222.009689 
	C213.739700,222.006699 211.371460,222.007126 208.602722,222.004608 
	C207.134399,222.002716 206.066528,222.003799 204.624054,222.003845 
	C203.500259,222.004105 202.751083,222.005432 201.544281,222.004822 
	C198.592041,222.029831 196.095261,221.999771 193.603104,222.092926 
	C177.211945,222.705582 160.825775,223.522110 144.429428,223.893570 
	C137.242722,224.056366 130.033768,223.025299 122.838547,223.073883 
	C111.230270,223.152237 99.621002,224.027817 88.019730,223.896698 
	C79.069595,223.795563 70.265099,225.794891 61.318371,225.189468 
	C61.040997,225.170700 60.719650,225.801712 60.555408,225.980820 
	C64.434006,229.795105 68.333916,231.342209 73.269684,227.615692 
	C74.670494,226.558075 77.415718,227.281128 79.544395,227.187576 
	C79.651718,227.677933 79.759048,228.168289 79.866371,228.658646 
	C78.104851,229.807037 76.343338,230.955429 74.818016,231.949844 
	C77.952904,233.283920 81.021957,234.914001 84.284729,235.908661 
	C90.417709,237.778320 96.707230,239.131882 102.850388,240.971405 
	C111.953392,243.697250 120.964615,246.728622 130.056992,249.491440 
	C134.484818,250.836868 139.554138,250.962860 143.358780,253.256790 
	C148.943222,256.623840 155.048782,257.346436 161.212509,259.284790 
	C163.397171,260.425415 165.300583,261.523926 167.350952,262.092285 
	C169.802460,262.771851 172.968414,264.136627 174.786514,263.196503 
	C179.333466,260.845245 180.715347,262.184875 180.720490,266.123596 
	C187.581421,269.329010 195.682892,267.734894 201.353561,273.508789 
	C201.979767,274.146393 203.164413,274.333893 204.130615,274.524353 
	C217.372025,277.134094 229.349701,284.412415 243.115692,285.081116 
	C243.435593,285.096649 243.760620,285.221619 244.063324,285.344604 
	C250.956573,288.145416 257.811523,291.047668 264.773987,293.663910 
	C265.901733,294.087646 267.727783,293.609650 268.844849,292.921570 
	C271.894135,291.043213 274.461304,291.748932 276.012726,294.861938 
	C276.817535,296.476776 278.311157,297.748383 279.493622,299.175018 
	C280.092377,298.697052 280.691132,298.219116 281.289886,297.741150 
	C279.195221,294.662140 277.041016,291.621643 275.019287,288.495453 
	C271.676239,283.326050 268.418549,278.101349 265.467651,272.949097 
	C266.702942,273.713837 267.805908,274.276550 268.454712,275.169312 
	C273.620422,282.277588 278.659637,289.477905 283.840515,296.574921 
	C284.856506,297.966675 286.318329,299.032928 287.574524,300.249329 
	C288.051086,300.007660 288.527618,299.765991 289.004181,299.524292 
	C289.004181,297.925171 289.004364,296.326019 289.004150,294.726898 
	C288.993378,213.815842 288.974335,132.904785 289.014252,51.993748 
	C289.015350,49.721954 289.646454,47.450466 289.983765,45.178841 
	C294.481781,57.646938 299.094696,70.074982 303.456818,82.590431 
	C318.163727,124.786125 332.782562,167.012512 347.430206,209.228851 
	C348.241760,211.567719 349.009735,213.921707 349.860168,216.943802 
	C350.312531,218.054245 350.702728,218.489532 351.092926,218.924835 
	C356.723022,219.051468 362.353149,219.178085 368.790894,219.571152 
	C381.118134,220.158234 392.637726,220.478867 404.157288,220.799500 
	C411.116516,220.864716 418.075714,220.929947 425.695740,221.030457 
	C426.668762,221.075409 426.887085,220.937012 427.011536,220.650543 
z"/>
<path fill="#920606" opacity="1.000000" stroke="none" 
	d="
M287.004028,303.997223 
	C287.816498,304.209381 288.628998,304.421539 289.721069,305.132324 
	C290.000031,306.087189 289.999420,306.543427 289.709686,307.300232 
	C289.283783,309.406586 289.029449,311.212311 289.027863,313.018250 
	C289.002838,341.597168 288.980408,370.176147 289.042480,398.754974 
	C289.051758,403.025970 289.292297,407.247040 286.087219,410.672363 
	C274.606110,418.861725 263.193542,427.149323 251.630386,435.221222 
	C222.584579,455.497070 193.480347,475.689301 164.378769,495.885132 
	C154.870605,502.483582 145.298294,508.989563 134.539627,516.372070 
	C138.314041,503.914459 141.730621,492.637909 145.491150,481.521423 
	C145.319214,484.583160 145.054962,487.557892 144.237595,490.372009 
	C142.239944,497.249817 139.986557,504.053345 137.836105,510.886780 
	C140.240967,509.729584 141.814880,508.114868 142.891449,506.217926 
	C143.840179,504.546234 143.803909,502.224548 144.941147,500.765564 
	C152.603806,490.934906 160.684082,481.424042 168.182785,471.473267 
	C173.334488,464.637054 177.559570,457.109283 182.572998,450.160522 
	C189.077255,441.145538 195.938858,432.387787 202.678070,423.543243 
	C204.664124,420.936798 206.892075,418.506592 208.773315,415.829895 
	C213.285553,409.409790 217.539825,402.806488 222.118454,396.435425 
	C227.104065,389.498047 232.364883,382.759064 237.449692,375.892059 
	C239.219589,373.501831 240.674728,370.869537 242.530273,368.553436 
	C247.271210,362.635864 252.592346,357.134125 256.877563,350.912415 
	C262.672729,342.498444 267.673828,333.540253 273.105225,324.871704 
	C275.157959,321.595520 277.429840,318.454193 279.662537,315.294312 
	C280.680969,313.852905 281.846588,312.515564 282.945465,311.130981 
	C281.533478,310.401672 280.120789,309.673676 278.709839,308.942383 
	C278.137024,308.645477 277.567993,308.341278 277.211761,307.751160 
	C280.618866,306.306976 283.811432,305.152100 287.004028,303.997223 
z"/>
<path fill="#690505" opacity="1.000000" stroke="none" 
	d="
M286.483093,410.568207 
	C289.292297,407.247040 289.051758,403.025970 289.042480,398.754974 
	C288.980408,370.176147 289.002838,341.597168 289.027863,313.018250 
	C289.029449,311.212311 289.283783,309.406586 289.845642,307.605774 
	C291.482758,308.759247 292.694824,309.907745 294.176575,311.252563 
	C299.637390,318.751465 304.728516,326.127655 310.039429,333.342010 
	C322.824951,350.709839 335.808258,367.932556 348.533661,385.343964 
	C361.317749,402.835632 373.863556,420.501282 386.556030,438.060120 
	C397.820343,453.643311 409.107300,469.210449 420.455475,484.732574 
	C425.514954,491.652863 430.749084,498.445404 435.941132,505.635864 
	C437.990906,508.283997 440.003510,510.592224 442.016083,512.900452 
	C442.223999,513.367188 442.431915,513.833923 442.497803,514.628784 
	C442.355713,514.956909 442.290375,515.139526 442.290375,515.139526 
	C433.079681,508.966705 423.782043,502.919220 414.673309,496.599487 
	C374.253815,468.555817 333.904785,440.410614 293.449585,412.418732 
	C291.663574,411.182983 289.087189,411.089600 286.483093,410.568207 
z"/>
<path fill="#980607" opacity="1.000000" stroke="none" 
	d="
M291.804474,305.030640 
	C296.318726,303.010773 300.764496,300.815552 305.365692,299.018250 
	C310.400726,297.051483 315.579468,295.452515 320.862183,293.372620 
	C321.028839,293.052063 321.049377,293.061981 321.447510,293.058594 
	C331.164368,290.113373 340.481445,287.166107 349.802277,284.230835 
	C366.572632,278.949615 383.377960,273.777039 400.108948,268.373962 
	C423.286194,260.889130 446.418610,253.264877 469.549194,245.636490 
	C480.058838,242.170456 490.517975,238.551239 501.346161,234.976685 
	C502.792542,234.605835 503.892761,234.259766 505.364807,233.903809 
	C508.168640,232.960220 510.600586,232.026505 513.397827,231.045105 
	C516.192444,230.045334 518.621704,229.093246 521.050964,228.141159 
	C524.995300,226.746063 528.939575,225.350967 532.961426,223.621429 
	C534.312073,223.286987 535.585144,223.286987 536.858276,223.286987 
	C537.038025,223.592499 537.217834,223.898010 537.397583,224.203522 
	C488.376495,261.366394 439.355408,298.529236 389.798431,335.936340 
	C388.842987,336.462921 388.423431,336.745239 387.784058,336.746521 
	C385.575531,335.654175 383.629272,334.711670 381.591400,334.052734 
	C367.249756,329.415466 352.880035,324.865021 338.537231,320.231415 
	C322.949585,315.195679 307.381226,310.100128 291.804474,305.030640 
z"/>
<path fill="#A60506" opacity="1.000000" stroke="none" 
	d="
M289.971466,44.848228 
	C289.646454,47.450466 289.015350,49.721954 289.014252,51.993748 
	C288.974335,132.904785 288.993378,213.815842 289.004150,294.726898 
	C289.004364,296.326019 289.004181,297.925171 289.004181,299.524292 
	C288.527618,299.765991 288.051086,300.007660 287.574524,300.249329 
	C286.318329,299.032928 284.856506,297.966675 283.840515,296.574921 
	C278.659637,289.477905 273.620422,282.277588 268.454712,275.169312 
	C267.805908,274.276550 266.702942,273.713837 265.456238,272.965698 
	C265.102081,272.933167 265.084961,272.922455 265.082123,272.547974 
	C264.573792,270.826630 264.329834,269.292969 263.522125,268.161896 
	C255.805191,257.354950 248.068665,246.559998 240.167374,235.887772 
	C237.351410,232.084274 234.069519,228.625732 231.000717,225.005005 
	C231.001129,225.000290 230.990128,224.999313 230.990128,224.999313 
	C229.421814,223.394958 227.853516,221.790588 226.196899,219.893768 
	C226.108582,219.601303 226.023590,219.353455 226.391678,219.310577 
	C226.918900,218.988739 227.078049,218.709778 227.237213,218.430832 
	C236.150360,192.991135 245.097366,167.563232 253.968063,142.108734 
	C264.976807,110.519196 275.898987,78.899414 286.998169,47.341782 
	C287.364868,46.299225 286.348694,42.601589 289.971466,44.848228 
z"/>
<path fill="#A20608" opacity="1.000000" stroke="none" 
	d="
M276.997253,308.040405 
	C277.567993,308.341278 278.137024,308.645477 278.709839,308.942383 
	C280.120789,309.673676 281.533478,310.401672 282.945465,311.130981 
	C281.846588,312.515564 280.680969,313.852905 279.662537,315.294312 
	C277.429840,318.454193 275.157959,321.595520 273.105225,324.871704 
	C267.673828,333.540253 262.672729,342.498444 256.877563,350.912415 
	C252.592346,357.134125 247.271210,362.635864 242.530273,368.553436 
	C240.674728,370.869537 239.219589,373.501831 237.449692,375.892059 
	C232.364883,382.759064 227.104065,389.498047 222.118454,396.435425 
	C217.539825,402.806488 213.285553,409.409790 208.773315,415.829895 
	C206.892075,418.506592 204.664124,420.936798 202.678070,423.543243 
	C195.938858,432.387787 189.077255,441.145538 182.572998,450.160522 
	C177.559570,457.109283 173.334488,464.637054 168.182785,471.473267 
	C160.684082,481.424042 152.603806,490.934906 144.941147,500.765564 
	C143.803909,502.224548 143.840179,504.546234 142.891449,506.217926 
	C141.814880,508.114868 140.240967,509.729584 137.836105,510.886780 
	C139.986557,504.053345 142.239944,497.249817 144.237595,490.372009 
	C145.054962,487.557892 145.319214,484.583160 145.731934,481.254456 
	C145.628784,480.827393 145.704391,480.875854 146.013153,480.722015 
	C146.440720,479.612885 146.559525,478.657562 146.678345,477.702271 
	C146.678345,477.702271 146.725189,477.875305 147.018585,477.690918 
	C147.481064,476.439178 147.650146,475.371765 147.819229,474.304382 
	C150.624527,464.437103 153.299240,454.530518 156.259079,444.709808 
	C165.936356,412.600616 175.717499,380.522675 185.985352,347.957733 
	C186.634567,346.590240 186.757111,345.697784 186.879654,344.805298 
	C186.879654,344.805298 186.792725,344.328888 187.196899,343.899872 
	C187.991501,341.872009 188.381897,340.273193 188.772308,338.674347 
	C188.753433,338.328613 188.734558,337.982849 189.009125,337.256470 
	C189.550140,336.601715 189.797699,336.327606 190.419678,335.989655 
	C194.215973,334.825256 197.650360,333.761871 201.057159,332.616486 
	C208.518723,330.107819 215.941742,327.482117 223.427017,325.047150 
	C229.919647,322.935059 236.476334,321.019867 243.242645,319.280640 
	C245.990662,318.372406 248.500748,317.201233 251.354492,315.869080 
	C253.444061,315.455048 255.189987,315.201935 257.353271,314.966644 
	C260.929901,315.054443 264.233704,315.392334 265.390137,311.052673 
	C266.486694,311.009338 267.217926,310.985046 268.303406,310.969971 
	C269.445465,310.342285 270.233246,309.705353 271.403229,309.045593 
	C273.522705,308.695282 275.259979,308.367828 276.997253,308.040405 
z"/>
<path fill="#651516" opacity="1.000000" stroke="none" 
	d="
M190.045258,336.053467 
	C189.797699,336.327606 189.550140,336.601715 189.049286,336.995361 
	C180.172485,330.383392 171.627319,323.548615 162.912079,316.938049 
	C123.174637,286.796844 83.388046,256.720459 43.628090,226.608917 
	C42.474331,225.735153 41.420860,224.728943 39.439255,223.027863 
	C41.718475,223.027863 42.943645,223.027863 44.469696,223.118576 
	C45.672054,224.048309 46.573540,224.887329 47.801666,226.246124 
	C49.337936,227.540436 50.544327,228.320099 51.757828,229.088577 
	C55.141026,231.230988 59.539902,232.654785 61.671356,235.678131 
	C64.757317,240.055389 71.110710,244.995956 76.682045,244.616989 
	C76.768944,249.082535 78.386414,252.060806 83.457451,250.421936 
	C84.742592,252.581177 85.435722,254.943893 87.011482,256.194275 
	C95.720482,263.104889 104.603134,269.800110 113.519295,276.444275 
	C116.337608,278.544434 119.822891,279.859894 122.329239,282.243011 
	C126.292763,286.011658 129.762985,290.236511 134.191483,289.416840 
	C136.640259,292.568237 138.075180,295.219757 140.226532,297.010651 
	C144.309097,300.409180 149.111374,302.970215 153.050781,306.507202 
	C158.715820,311.593506 166.461624,313.282623 171.377472,320.134583 
	C175.311005,325.617310 182.528687,328.721558 188.192612,333.008484 
	C189.073654,333.675354 189.440582,335.021454 190.045258,336.053467 
z"/>
<path fill="#D1323A" opacity="1.000000" stroke="none" 
	d="
M388.003906,337.027588 
	C388.423431,336.745239 388.842987,336.462921 389.508148,336.130859 
	C392.584106,346.143646 395.247803,356.256531 398.273193,366.260040 
	C412.506317,413.321777 426.841949,460.352509 441.121735,507.400177 
	C441.602325,508.983765 441.877289,510.629822 442.132111,512.573608 
	C440.003510,510.592224 437.990906,508.283997 436.281982,505.508484 
	C436.912384,504.393890 437.635803,503.649048 437.504333,503.114441 
	C436.239258,497.969269 434.977234,492.814697 433.432922,487.748596 
	C429.762726,475.708374 425.868225,463.736572 422.198151,451.696350 
	C418.592590,439.867676 415.201447,427.973755 411.617737,416.138306 
	C409.895966,410.452026 407.839600,404.866974 406.123138,399.179169 
	C402.120819,385.917084 398.200073,372.630066 394.310944,359.334229 
	C392.141724,351.918243 390.101959,344.464417 388.003906,337.027588 
z"/>
<path fill="#F76E74" opacity="1.000000" stroke="none" 
	d="
M208.661942,219.205994 
	C205.687805,219.601349 202.264771,219.952286 198.834671,220.046829 
	C188.429108,220.333618 178.020782,220.521179 167.285782,220.505020 
	C180.708618,219.856552 194.459229,219.450439 208.661942,219.205994 
z"/>
<path fill="#F46C70" opacity="1.000000" stroke="none" 
	d="
M403.943787,220.462036 
	C392.637726,220.478867 381.118134,220.158234 369.250885,219.606201 
	C380.512238,219.624725 392.121246,219.874649 403.943787,220.462036 
z"/>
<path fill="#F05C5E" opacity="1.000000" stroke="none" 
	d="
M504.910004,222.505493 
	C494.649719,222.543518 484.150543,222.229874 473.305786,221.690491 
	C483.530487,221.694427 494.100830,221.924118 504.910004,222.505493 
z"/>
<path fill="#F05C5E" opacity="1.000000" stroke="none" 
	d="
M443.640991,220.981949 
	C439.225189,221.121460 434.415680,221.103912 429.315796,220.875946 
	C433.766052,220.718658 438.506683,220.771774 443.640991,220.981949 
z"/>
<path fill="#F76E74" opacity="1.000000" stroke="none" 
	d="
M160.606934,220.201477 
	C156.944366,220.552872 152.844894,220.747391 148.311050,220.763550 
	C151.974457,220.404999 156.072235,220.224792 160.606934,220.201477 
z"/>
<path fill="#651516" opacity="1.000000" stroke="none" 
	d="
M188.532898,338.926025 
	C188.381897,340.273193 187.991501,341.872009 187.329788,343.697479 
	C187.470154,342.341980 187.881821,340.759827 188.532898,338.926025 
z"/>
<path fill="#D1323A" opacity="1.000000" stroke="none" 
	d="
M442.177917,515.296814 
	C442.290375,515.139526 442.355713,514.956909 442.436554,515.010376 
	C442.709198,515.261719 442.901001,515.459656 443.092834,515.657593 
	C442.750366,515.589722 442.407898,515.521912 442.177917,515.296814 
z"/>
<path fill="#651516" opacity="1.000000" stroke="none" 
	d="
M186.646515,345.045837 
	C186.757111,345.697784 186.634567,346.590240 186.238068,347.681763 
	C186.113876,347.015991 186.263626,346.151184 186.646515,345.045837 
z"/>
<path fill="#920606" opacity="1.000000" stroke="none" 
	d="
M147.525391,474.564148 
	C147.650146,475.371765 147.481064,476.439178 146.930237,477.675903 
	C146.776169,476.838135 147.003860,475.831024 147.525391,474.564148 
z"/>
<path fill="#920606" opacity="1.000000" stroke="none" 
	d="
M146.429474,477.940155 
	C146.559525,478.657562 146.440720,479.612885 145.973145,480.714783 
	C145.809784,479.966949 145.995193,479.072479 146.429474,477.940155 
z"/>
<path fill="#F46C70" opacity="1.000000" stroke="none" 
	d="
M351.068817,218.630188 
	C350.702728,218.489532 350.312531,218.054245 349.994812,217.288971 
	C350.393097,217.417862 350.718903,217.876709 351.068817,218.630188 
z"/>
<path fill="#F05C5E" opacity="1.000000" stroke="none" 
	d="
M426.829163,220.503540 
	C426.887085,220.937012 426.668762,221.075409 426.161530,221.003571 
	C426.072205,220.605438 426.298981,220.410492 426.829163,220.503540 
z"/>
<path fill="#F05C5E" opacity="1.000000" stroke="none" 
	d="
M464.793274,221.235107 
	C464.759735,221.459808 464.439636,221.565384 464.021484,221.499466 
	C464.117828,221.257294 464.312286,221.186630 464.793274,221.235107 
z"/>
<path fill="#F76E74" opacity="1.000000" stroke="none" 
	d="
M226.985382,218.422577 
	C227.078049,218.709778 226.918900,218.988739 226.503006,219.241516 
	C226.408691,218.948349 226.571121,218.681351 226.985382,218.422577 
z"/>
<path fill="#EB0B0C" opacity="1.000000" stroke="none" 
	d="
M387.784058,336.746521 
	C390.101959,344.464417 392.141724,351.918243 394.310944,359.334229 
	C398.200073,372.630066 402.120819,385.917084 406.123138,399.179169 
	C407.839600,404.866974 409.895966,410.452026 411.617737,416.138306 
	C415.201447,427.973755 418.592590,439.867676 422.198151,451.696350 
	C425.868225,463.736572 429.762726,475.708374 433.432922,487.748596 
	C434.977234,492.814697 436.239258,497.969269 437.504333,503.114441 
	C437.635803,503.649048 436.912384,504.393890 436.244812,505.168579 
	C430.749084,498.445404 425.514954,491.652863 420.455475,484.732574 
	C409.107300,469.210449 397.820343,453.643311 386.556030,438.060120 
	C373.863556,420.501282 361.317749,402.835632 348.533661,385.343964 
	C335.808258,367.932556 322.824951,350.709839 310.039429,333.342010 
	C304.728516,326.127655 299.637390,318.751465 294.173126,310.907990 
	C293.014771,308.565643 292.129608,306.764221 291.244446,304.962769 
	C291.244446,304.962769 291.527771,304.988953 291.666138,305.009796 
	C307.381226,310.100128 322.949585,315.195679 338.537231,320.231415 
	C352.880035,324.865021 367.249756,329.415466 381.591400,334.052734 
	C383.629272,334.711670 385.575531,335.654175 387.784058,336.746521 
z"/>
<path fill="#6B0303" opacity="1.000000" stroke="none" 
	d="
M190.419678,335.989655 
	C189.440582,335.021454 189.073654,333.675354 188.192612,333.008484 
	C182.528687,328.721558 175.311005,325.617310 171.377472,320.134583 
	C166.461624,313.282623 158.715820,311.593506 153.050781,306.507202 
	C149.111374,302.970215 144.309097,300.409180 140.226532,297.010651 
	C138.075180,295.219757 136.640259,292.568237 134.191483,289.416840 
	C129.762985,290.236511 126.292763,286.011658 122.329239,282.243011 
	C119.822891,279.859894 116.337608,278.544434 113.519295,276.444275 
	C104.603134,269.800110 95.720482,263.104889 87.011482,256.194275 
	C85.435722,254.943893 84.742592,252.581177 83.457451,250.421936 
	C78.386414,252.060806 76.768944,249.082535 76.682045,244.616989 
	C71.110710,244.995956 64.757317,240.055389 61.671356,235.678131 
	C59.539902,232.654785 55.141026,231.230988 51.757828,229.088577 
	C50.544327,228.320099 49.337936,227.540436 48.071217,226.425201 
	C61.115219,230.275589 74.219017,234.458221 87.316620,238.660141 
	C99.956490,242.715195 112.604866,246.744522 125.222847,250.866791 
	C145.392136,257.456024 165.520935,264.169617 185.701294,270.724518 
	C204.649368,276.879150 223.668503,282.815460 242.604782,289.005707 
	C253.143753,292.450867 263.566040,296.251587 274.064209,299.823547 
	C278.119995,301.203522 282.240234,302.393921 286.667572,303.833984 
	C283.811432,305.152100 280.618866,306.306976 277.211761,307.751160 
	C275.259979,308.367828 273.522705,308.695282 271.050537,309.028564 
	C269.526794,309.676483 268.737976,310.318634 267.949158,310.960754 
	C267.217926,310.985046 266.486694,311.009338 265.019287,311.074341 
	C261.834076,312.393005 259.384979,313.670929 256.935913,314.948853 
	C255.189987,315.201935 253.444061,315.455048 250.981537,315.899536 
	C247.844864,317.066467 245.424789,318.042053 243.004715,319.017639 
	C236.476334,321.019867 229.919647,322.935059 223.427017,325.047150 
	C215.941742,327.482117 208.518723,330.107819 201.057159,332.616486 
	C197.650360,333.761871 194.215973,334.825256 190.419678,335.989655 
M72.440819,238.963867 
	C73.129173,238.493118 73.817528,238.022354 74.505882,237.551590 
	C72.960869,236.968872 71.415855,236.386139 69.870842,235.803421 
	C69.647736,236.298157 69.424629,236.792908 69.201523,237.287659 
	C70.035240,237.837357 70.868958,238.387070 72.440819,238.963867 
M82.489441,240.840637 
	C82.783363,240.425308 83.077286,240.009995 83.371216,239.594681 
	C82.936073,239.483856 82.500938,239.373016 82.065796,239.262192 
	C82.013725,239.747925 81.961647,240.233643 82.489441,240.840637 
z"/>
<path fill="#FD1011" opacity="1.000000" stroke="none" 
	d="
M321.046997,293.058105 
	C317.902771,293.044037 314.739960,292.986969 311.578308,293.025940 
	C310.605774,293.037964 309.195923,292.954987 308.734955,293.523041 
	C304.773102,298.405182 298.216278,296.372559 293.971649,300.324280 
	C293.727844,299.991516 293.484039,299.658722 293.240204,299.325958 
	C293.346527,298.585388 293.201813,297.655029 293.596741,297.132690 
	C299.806427,288.919678 304.838928,279.905975 312.147064,272.396912 
	C316.897003,267.516357 319.826019,260.907867 323.909515,255.321075 
	C327.417816,250.521210 331.767548,246.317368 335.096375,241.409882 
	C339.872620,234.368576 344.059296,226.927338 348.558136,219.557800 
	C349.097595,220.044296 350.633606,221.429565 352.210693,222.851883 
	C353.791504,222.581802 355.488739,222.050659 357.189178,222.040161 
	C368.841278,221.968170 380.500610,221.759918 392.144806,222.073181 
	C404.974030,222.418335 417.784332,223.612427 430.612488,223.808258 
	C442.136963,223.984192 453.678650,222.969055 465.204895,223.112091 
	C474.952606,223.233093 484.684021,224.361755 494.432526,224.845474 
	C499.664246,225.105087 504.916809,224.945526 510.524445,225.372604 
	C508.821503,229.675949 505.404419,227.660248 502.475403,227.636581 
	C500.800018,227.623047 499.126892,227.332962 496.304291,227.053802 
	C498.360077,230.089066 499.678802,232.036133 500.592651,233.989838 
	C490.871185,236.629669 481.537506,239.204346 472.244446,241.918076 
	C466.728638,243.528778 461.243683,245.261276 455.803894,247.112473 
	C447.347107,249.990402 438.994232,253.181839 430.497833,255.933182 
	C421.768799,258.759857 412.896118,261.140778 404.141571,263.892517 
	C402.001038,264.565338 400.179840,266.273376 398.035095,266.910187 
	C385.615173,270.598022 373.105316,273.984253 360.698090,277.712769 
	C348.583557,281.353333 336.526367,285.194550 324.528107,289.199493 
	C323.098083,289.676788 322.196106,291.735992 321.049377,293.061981 
	C321.049377,293.061981 321.028839,293.052063 321.046997,293.058105 
z"/>
<path fill="#FB0E0E" opacity="1.000000" stroke="none" 
	d="
M265.113495,272.916565 
	C268.418549,278.101349 271.676239,283.326050 275.019287,288.495453 
	C277.041016,291.621643 279.195221,294.662140 281.289886,297.741150 
	C280.691132,298.219116 280.092377,298.697052 279.493622,299.175018 
	C278.311157,297.748383 276.817535,296.476776 276.012726,294.861938 
	C274.461304,291.748932 271.894135,291.043213 268.844849,292.921570 
	C267.727783,293.609650 265.901733,294.087646 264.773987,293.663910 
	C257.811523,291.047668 250.956573,288.145416 244.063324,285.344604 
	C243.760620,285.221619 243.435593,285.096649 243.115692,285.081116 
	C229.349701,284.412415 217.372025,277.134094 204.130615,274.524353 
	C203.164413,274.333893 201.979767,274.146393 201.353561,273.508789 
	C195.682892,267.734894 187.581421,269.329010 180.720490,266.123596 
	C180.715347,262.184875 179.333466,260.845245 174.786514,263.196503 
	C172.968414,264.136627 169.802460,262.771851 167.350952,262.092285 
	C165.300583,261.523926 163.397171,260.425415 161.214661,258.885284 
	C160.723221,254.783157 162.590317,253.260284 165.648331,252.176315 
	C170.122131,250.590469 175.362778,250.560165 178.364441,245.626190 
	C179.077408,244.454285 182.056900,243.979996 183.818817,244.265381 
	C187.830505,244.915146 192.896637,243.184952 194.738754,249.753677 
	C195.209229,249.357346 195.679703,248.961014 196.150192,248.564697 
	C196.397781,245.790894 196.645355,243.017105 196.947006,239.637604 
	C198.904175,238.947006 201.395569,237.287094 203.833755,237.361862 
	C209.844330,237.546204 210.413483,234.646774 209.144226,229.713257 
	C210.192093,228.951004 211.095734,228.475510 212.451736,228.000000 
	C217.544998,228.169998 222.593964,226.739868 225.455414,231.080475 
	C227.193314,229.905289 228.600479,228.953751 230.007263,228.333984 
	C230.008255,229.108109 230.009613,229.550461 229.668045,230.052124 
	C228.883530,231.074280 228.441956,232.037140 227.721527,233.216431 
	C224.875824,239.184296 226.607590,241.853973 233.239075,242.264404 
	C235.652939,242.018723 237.827759,241.508621 240.324066,241.178558 
	C242.080154,244.315598 242.819702,247.836151 246.858521,248.633957 
	C247.298447,248.720856 247.611603,249.654510 247.907364,250.234268 
	C250.870682,256.042908 253.994034,261.727814 258.773285,266.324829 
	C260.964874,268.432892 262.986328,270.717773 265.084961,272.922455 
	C265.084961,272.922455 265.102081,272.933167 265.113495,272.916565 
z"/>
<path fill="#FA0B0C" opacity="1.000000" stroke="none" 
	d="
M209.000000,230.000000 
	C210.413483,234.646774 209.844330,237.546204 203.833755,237.361862 
	C201.395569,237.287094 198.904175,238.947006 196.947006,239.637604 
	C196.645355,243.017105 196.397781,245.790894 196.150192,248.564697 
	C195.679703,248.961014 195.209229,249.357346 194.738754,249.753677 
	C192.896637,243.184952 187.830505,244.915146 183.818817,244.265381 
	C182.056900,243.979996 179.077408,244.454285 178.364441,245.626190 
	C175.362778,250.560165 170.122131,250.590469 165.648331,252.176315 
	C162.590317,253.260284 160.723221,254.783157 160.998505,258.608398 
	C155.048782,257.346436 148.943222,256.623840 143.358780,253.256790 
	C139.554138,250.962860 134.484818,250.836868 130.056992,249.491440 
	C120.964615,246.728622 111.953392,243.697250 102.850388,240.971405 
	C96.707230,239.131882 90.417709,237.778320 84.284729,235.908661 
	C81.021957,234.914001 77.952904,233.283920 74.818016,231.949844 
	C76.343338,230.955429 78.104851,229.807037 79.866371,228.658646 
	C79.759048,228.168289 79.651718,227.677933 79.544395,227.187576 
	C77.415718,227.281128 74.670494,226.558075 73.269684,227.615692 
	C68.333916,231.342209 64.434006,229.795105 60.555408,225.980820 
	C60.719650,225.801712 61.040997,225.170700 61.318371,225.189468 
	C70.265099,225.794891 79.069595,223.795563 88.019730,223.896698 
	C99.621002,224.027817 111.230270,223.152237 122.838547,223.073883 
	C130.033768,223.025299 137.242722,224.056366 144.429428,223.893570 
	C160.825775,223.522110 177.211945,222.705582 193.603104,222.092926 
	C196.095261,221.999771 198.592041,222.029831 201.486511,222.392059 
	C200.400238,223.520432 198.947845,224.802246 197.421722,224.897049 
	C192.850235,225.180969 188.241241,224.840256 183.665512,225.087662 
	C182.033707,225.175888 180.455200,226.250259 178.852371,226.874496 
	C179.031540,227.731674 179.210709,228.588852 179.389862,229.446030 
	C189.259918,229.630676 199.129959,229.815338 209.000000,230.000000 
M114.713570,242.545959 
	C114.988739,242.283905 115.263908,242.021851 115.539078,241.759796 
	C115.430443,241.645905 115.233345,241.427017 115.225937,241.433258 
	C114.935699,241.677826 114.662735,241.942902 114.713570,242.545959 
z"/>
<path fill="#FB0B0F" opacity="1.000000" stroke="none" 
	d="
M209.144226,229.713257 
	C199.129959,229.815338 189.259918,229.630676 179.389862,229.446030 
	C179.210709,228.588852 179.031540,227.731674 178.852371,226.874496 
	C180.455200,226.250259 182.033707,225.175888 183.665512,225.087662 
	C188.241241,224.840256 192.850235,225.180969 197.421722,224.897049 
	C198.947845,224.802246 200.400238,223.520432 201.944122,222.393997 
	C202.751083,222.005432 203.500259,222.004105 204.689819,222.346558 
	C206.810135,224.668991 208.148438,224.709671 209.003204,222.007568 
	C211.371460,222.007126 213.739700,222.006699 216.606934,222.338638 
	C218.072266,222.451981 219.038620,222.232925 220.004959,222.013885 
	C220.752350,222.011673 221.499741,222.009445 222.619370,222.427780 
	C223.270767,226.139801 220.999527,225.787659 218.799332,226.079788 
	C216.488449,226.386612 214.262466,227.333069 211.999390,228.000000 
	C211.095734,228.475510 210.192093,228.951004 209.144226,229.713257 
z"/>
<path fill="#F80F12" opacity="1.000000" stroke="none" 
	d="
M500.997559,233.983185 
	C499.678802,232.036133 498.360077,230.089066 496.304291,227.053802 
	C499.126892,227.332962 500.800018,227.623047 502.475403,227.636581 
	C505.404419,227.660248 508.821503,229.675949 510.945068,225.384735 
	C513.309204,225.000702 515.654297,224.760162 517.909363,225.106262 
	C519.021912,225.277008 519.968140,226.531128 521.020264,227.718109 
	C518.621704,229.093246 516.192444,230.045334 513.245117,230.734573 
	C508.772644,228.526337 506.330933,229.979935 504.992981,233.913696 
	C503.892761,234.259766 502.792542,234.605835 501.347626,234.722107 
	C501.001129,234.322601 500.999359,234.152893 500.997559,233.983185 
z"/>
<path fill="#FA0B0C" opacity="1.000000" stroke="none" 
	d="
M212.451736,228.000000 
	C214.262466,227.333069 216.488449,226.386612 218.799332,226.079788 
	C220.999527,225.787659 223.270767,226.139801 222.993057,222.431030 
	C225.422562,222.982437 227.850616,223.951141 230.634399,224.959579 
	C230.990128,224.999313 231.001129,225.000290 230.996597,225.340469 
	C230.663925,226.454498 230.335785,227.228363 230.007629,228.002228 
	C228.600479,228.953751 227.193314,229.905289 225.455414,231.080475 
	C222.593964,226.739868 217.544998,228.169998 212.451736,228.000000 
z"/>
<path fill="#980607" opacity="1.000000" stroke="none" 
	d="
M290.934906,304.954834 
	C292.129608,306.764221 293.014771,308.565643 293.903442,310.711670 
	C292.694824,309.907745 291.482758,308.759247 290.134766,307.305237 
	C289.999420,306.543427 290.000031,306.087189 290.003387,305.287659 
	C290.212524,304.945282 290.418945,304.946106 290.934906,304.954834 
z"/>
<path fill="#FA0B0C" opacity="1.000000" stroke="none" 
	d="
M208.602722,222.004608 
	C208.148438,224.709671 206.810135,224.668991 205.064438,222.347610 
	C206.066528,222.003799 207.134399,222.002716 208.602722,222.004608 
z"/>
<path fill="#FA0B0C" opacity="1.000000" stroke="none" 
	d="
M219.628784,222.008820 
	C219.038620,222.232925 218.072266,222.451981 217.050629,222.342072 
	C217.747757,222.010010 218.500183,222.006882 219.628784,222.008820 
z"/>
<path fill="#EE1012" opacity="1.000000" stroke="none" 
	d="
M500.592651,233.989838 
	C500.999359,234.152893 501.001129,234.322601 501.001465,234.746918 
	C490.517975,238.551239 480.058838,242.170456 469.549194,245.636490 
	C446.418610,253.264877 423.286194,260.889130 400.108948,268.373962 
	C383.377960,273.777039 366.572632,278.949615 349.802277,284.230835 
	C340.481445,287.166107 331.164368,290.113373 321.447510,293.058594 
	C322.196106,291.735992 323.098083,289.676788 324.528107,289.199493 
	C336.526367,285.194550 348.583557,281.353333 360.698090,277.712769 
	C373.105316,273.984253 385.615173,270.598022 398.035095,266.910187 
	C400.179840,266.273376 402.001038,264.565338 404.141571,263.892517 
	C412.896118,261.140778 421.768799,258.759857 430.497833,255.933182 
	C438.994232,253.181839 447.347107,249.990402 455.803894,247.112473 
	C461.243683,245.261276 466.728638,243.528778 472.244446,241.918076 
	C481.537506,239.204346 490.871185,236.629669 500.592651,233.989838 
z"/>
<path fill="#EE1012" opacity="1.000000" stroke="none" 
	d="
M505.364807,233.903809 
	C506.330933,229.979935 508.772644,228.526337 512.879761,230.782257 
	C510.600586,232.026505 508.168640,232.960220 505.364807,233.903809 
z"/>
<path fill="#EE1012" opacity="1.000000" stroke="none" 
	d="
M230.007263,228.333984 
	C230.335785,227.228363 230.663925,226.454498 230.996185,225.345184 
	C234.069519,228.625732 237.351410,232.084274 240.167374,235.887772 
	C248.068665,246.559998 255.805191,257.354950 263.522125,268.161896 
	C264.329834,269.292969 264.573792,270.826630 265.082123,272.547974 
	C262.986328,270.717773 260.964874,268.432892 258.773285,266.324829 
	C253.994034,261.727814 250.870682,256.042908 247.907364,250.234268 
	C247.611603,249.654510 247.298447,248.720856 246.858521,248.633957 
	C242.819702,247.836151 242.080154,244.315598 240.174255,240.878387 
	C236.472321,236.929718 233.241653,233.461273 230.010986,229.992828 
	C230.009613,229.550461 230.008255,229.108109 230.007263,228.333984 
z"/>
<path fill="#920606" opacity="1.000000" stroke="none" 
	d="
M257.353271,314.966675 
	C259.384979,313.670929 261.834076,312.393005 264.653961,311.093384 
	C264.233704,315.392334 260.929901,315.054443 257.353271,314.966675 
z"/>
<path fill="#920606" opacity="1.000000" stroke="none" 
	d="
M243.242645,319.280640 
	C245.424789,318.042053 247.844864,317.066467 250.637878,316.060455 
	C248.500748,317.201233 245.990662,318.372406 243.242645,319.280640 
z"/>
<path fill="#920606" opacity="1.000000" stroke="none" 
	d="
M268.303406,310.969971 
	C268.737976,310.318634 269.526794,309.676483 270.668335,309.051392 
	C270.233246,309.705353 269.445465,310.342285 268.303406,310.969971 
z"/>
<path fill="#651516" opacity="1.000000" stroke="none" 
	d="
M72.071747,238.950317 
	C70.868958,238.387070 70.035240,237.837357 69.201523,237.287659 
	C69.424629,236.792908 69.647736,236.298157 69.870842,235.803421 
	C71.415855,236.386139 72.960869,236.968872 74.505890,237.551590 
	C73.817528,238.022354 73.129173,238.493118 72.071747,238.950317 
z"/>
<path fill="#651516" opacity="1.000000" stroke="none" 
	d="
M82.199509,240.779999 
	C81.961647,240.233643 82.013725,239.747925 82.065796,239.262192 
	C82.500938,239.373016 82.936073,239.483856 83.371216,239.594681 
	C83.077286,240.009995 82.783363,240.425308 82.199509,240.779999 
z"/>
<path fill="#FD0C0E" opacity="1.000000" stroke="none" 
	d="
M229.668045,230.052124 
	C233.241653,233.461273 236.472321,236.929718 239.852768,240.698349 
	C237.827759,241.508621 235.652939,242.018723 233.238525,241.883026 
	C231.332748,238.491486 229.666565,235.745743 228.000366,233.000000 
	C228.441956,232.037140 228.883530,231.074280 229.668045,230.052124 
z"/>
<path fill="#FA0B0C" opacity="1.000000" stroke="none" 
	d="
M227.721527,233.216431 
	C229.666565,235.745743 231.332748,238.491486 232.999466,241.618622 
	C226.607590,241.853973 224.875824,239.184296 227.721527,233.216431 
z"/>
<path fill="#EE1012" opacity="1.000000" stroke="none" 
	d="
M114.550537,242.375641 
	C114.662735,241.942902 114.935699,241.677826 115.225937,241.433258 
	C115.233345,241.427017 115.430443,241.645905 115.539078,241.759796 
	C115.263908,242.021851 114.988739,242.283905 114.550537,242.375641 
z"/>
</svg>